<?xml version="1.0" encoding="utf-8"?>
<svg version="1.1" baseProfile="tiny" id="Layer_1" xmlns="http://www.w3.org/2000/svg" xmlns:xlink="http://www.w3.org/1999/xlink"
	 x="0px" y="0px" viewBox="0 0 512 512" overflow="visible" xml:space="preserve">
<polygon fill="#6966FF" points="512,110 512,402 402,512 110,512 0,402 0,110 110,0 402,0 "/>
<polygon fill="#5D5BE3" points="512,110 512,402 402,512 110,512 55,457 457,55 "/>
<rect display="none" fill="#5D5BE3" width="512" height="512"/>
<polygon display="none" fill="#6966FF" points="0,0 512,0 0,512 "/>
<path fill="#FFFFFF" d="M174.3,148.8c0,97.8,79.3,177,177.1,176.9c23.6,0,46.9-4.7,68.6-13.9c-37.9,90.1-141.7,132.4-231.8,94.4
	S55.8,264.5,93.8,174.4c17.9-42.6,51.8-76.5,94.4-94.4C179,101.8,174.3,125.1,174.3,148.8z"/>
</svg>
